# xmcd
#
# Track frame offsets: 
#        183
#        15563
#        29948
#
# Disc length: 632 seconds
#
# Revision: 0
# Processed by: cddbd v1.5.2PL0 Copyright (c) Steve Scherf et al.
# Submitted via: ExactAudioCopy v0.99pb4
#
DISCID=20027603
DTITLE=Ina Deter - Von Luft und Liebe (Maxi CD)
DYEAR=1993
DGENRE=Deutsch-Rock
TTITLE0=Von Luft und Liebe
TTITLE1=Scivias
TTITLE2=Für Immer
EXTD=
EXTT0=
EXTT1=
EXTT2=
PLAYORDER=
